<svg width="1200" height="780" viewBox="0 0 1200 780" fill="none" xmlns="http://www.w3.org/2000/svg">
  <rect width="1200" height="780" rx="36" fill="#F8FBFB"/>
  <rect x="48" y="48" width="1104" height="684" rx="28" fill="#FFFFFF" stroke="#D8E7E6" stroke-width="2"/>

  <g stroke="#E6EFEE" stroke-width="2">
    <line x1="120" y1="180" x2="1080" y2="180"/>
    <line x1="120" y1="300" x2="1080" y2="300"/>
    <line x1="120" y1="420" x2="1080" y2="420"/>
    <line x1="120" y1="540" x2="1080" y2="540"/>
    <line x1="120" y1="660" x2="1080" y2="660"/>
    <line x1="240" y1="120" x2="240" y2="660"/>
    <line x1="420" y1="120" x2="420" y2="660"/>
    <line x1="600" y1="120" x2="600" y2="660"/>
    <line x1="780" y1="120" x2="780" y2="660"/>
    <line x1="960" y1="120" x2="960" y2="660"/>
  </g>

  <g stroke="#263238" stroke-width="4" stroke-linecap="round">
    <line x1="120" y1="180" x2="1080" y2="180"/>
    <line x1="120" y1="420" x2="1080" y2="420"/>
    <line x1="120" y1="660" x2="1080" y2="660"/>
    <line x1="120" y1="120" x2="120" y2="220"/>
    <line x1="120" y1="360" x2="120" y2="460"/>
    <line x1="120" y1="600" x2="120" y2="700"/>
  </g>

  <g fill="#6A7B7A" font-family="Arial, sans-serif" font-size="28" font-weight="600">
    <text x="52" y="190">P</text>
    <text x="52" y="430">F</text>
    <text x="52" y="670">V</text>
  </g>

  <path d="M120 220 L180 220 C210 220 225 140 255 140 L420 140 C450 140 465 220 495 220 L600 220 L660 220 C690 220 705 140 735 140 L900 140 C930 140 945 220 975 220 L1080 220" stroke="#152A45" stroke-width="8" stroke-linejoin="round" stroke-linecap="round"/>
  <path d="M120 420 L180 420 C215 420 260 330 340 300 C430 266 515 314 600 420 L660 420 C695 420 740 330 820 300 C910 266 995 314 1080 420" stroke="#67D0CC" stroke-width="8" stroke-linejoin="round" stroke-linecap="round"/>
  <path d="M120 660 L150 660 C190 660 205 595 235 595 L330 595 C360 595 380 660 410 660 L660 660 L690 660 C730 660 745 595 775 595 L870 595 C900 595 920 660 950 660 L1080 660" stroke="#C9A86A" stroke-width="8" stroke-linejoin="round" stroke-linecap="round"/>
</svg>
